<svg width="39.00000000000001" height="27" xmlns="http://www.w3.org/2000/svg" fill="none">

 <g>
  <title>Layer 1</title>
  <rect id="svg_1" fill="white" height="3" width="3" x="33"/>
  <rect id="svg_2" fill="white" height="3" width="3" x="29.9998"/>
  <rect id="svg_3" fill="white" height="3" width="3" y="9.00024" x="12.0002"/>
  <rect id="svg_4" fill="white" height="3" width="3" y="9.00024"/>
  <rect id="svg_5" fill="white" height="3" width="3" y="9.00024" x="6.00024"/>
  <rect id="svg_6" fill="white" height="3" width="3" y="12.0002" x="12.0002"/>
  <rect id="svg_7" fill="white" height="3" width="3" y="12.0002" x="6.00024"/>
  <rect id="svg_8" fill="white" height="3" width="3" y="15.0005" x="12.0002"/>
  <rect x="0" stroke="null" id="svg_9" fill="white" height="3" width="14.28378" y="18.0005"/>
  <rect id="svg_10" fill="white" height="3" width="3" y="15.0005" x="6.00024"/>
  <rect id="svg_11" fill="white" height="3" width="3" y="18.0005" x="12.0002"/>
  <rect id="svg_12" fill="white" height="3" width="3" y="23.9995" x="9.00024"/>
  <rect id="svg_13" fill="white" height="3" width="3" y="23.9995"/>
  <rect id="svg_14" fill="white" height="3" width="3" y="23.9995" x="3.00024"/>
  <rect id="svg_15" fill="white" height="3" width="3" y="23.9995" x="6.00024"/>
  <rect id="svg_16" fill="white" height="3" width="3" y="23.9995" x="29.9998"/>
  <rect id="svg_17" fill="white" height="3" width="3" y="23.9995" x="12.0002"/>
  <rect id="svg_18" fill="white" height="3" width="3" y="23.9995" x="15.0005"/>
  <rect id="svg_19" fill="white" height="3" width="3" y="23.9995" x="18.0005"/>
  <rect id="svg_20" fill="white" height="3" width="3" y="23.9995" x="21"/>
  <rect id="svg_21" fill="white" height="3" width="3" y="23.9995" x="23.9995"/>
  <rect id="svg_22" fill="white" height="3" width="3" y="23.9995" x="26.9998"/>
  <rect id="svg_23" fill="white" height="3" width="3" y="23.9995" x="33"/>
  <rect stroke="null" id="svg_24" fill="white" height="3" width="44.42059" y="23.9995" x="-3.66845"/>
  <rect id="svg_25" fill="white" height="3" width="3" y="21" x="36"/>
  <rect stroke="null" id="svg_26" fill="white" height="3" width="5.17265" y="18.0005" x="32.0188"/>
  <rect id="svg_27" fill="white" height="3" width="3" y="18.0005" x="29.9998"/>
  <rect id="svg_28" fill="white" height="3" width="3" y="15.0005" x="29.9998"/>
  <rect id="svg_29" fill="white" height="3" width="3" y="9.00024" x="36"/>
  <rect id="svg_30" fill="white" height="3" width="3" y="12.0002" x="29.9998"/>
  <rect id="svg_31" fill="white" height="3" width="3" y="9.00024" x="29.9998"/>
  <rect stroke="null" id="svg_32" fill="white" height="14.28378" width="3" y="6.00024" x="29.9998"/>
  <rect id="svg_33" fill="white" height="3" width="3" y="18.0005" x="36"/>
  <rect id="svg_34" fill="white" height="3" width="3" y="15.0005" x="36"/>
  <rect id="svg_35" fill="white" height="3" width="3" y="12.0002" x="36"/>
  <rect stroke="null" id="svg_36" fill="white" height="3" width="5.73334" y="6.00024" x="31.87863"/>
  <rect stroke="null" id="svg_37" fill="white" height="20.0308" width="3" y="6.00024" x="36"/>
  <rect stroke="null" id="svg_38" fill="white" height="3" width="7.83591" y="18.0005" x="19.16359"/>
  <rect stroke="null" id="svg_39" fill="white" height="3" width="4.19146" y="6.00024" x="20.08889"/>
  <rect id="svg_40" fill="white" height="3" width="3" y="18.0005" x="21"/>
  <rect stroke="null" id="svg_41" fill="white" height="3" width="4.54188" y="12.0002" x="20.43932"/>
  <rect id="svg_42" fill="white" height="3" width="3" y="12.0002" x="23.9995"/>
  <rect id="svg_43" fill="white" height="3" width="3" y="9.00024" x="23.9995"/>
  <rect stroke="null" id="svg_44" fill="white" height="8.60685" width="3" y="6.00024" x="23.9995"/>
  <rect stroke="null" id="svg_45" fill="white" height="14.07352" width="3" y="6.00024" x="18.0005"/>
  <rect stroke="null" id="svg_46" fill="white" height="14.70429" width="3" y="6.00024" x="6.00024"/>
  <rect id="svg_47" fill="white" height="3" width="3" y="9.00024" x="18.0005"/>
  <rect id="svg_48" fill="white" height="3" width="3" y="12.0002" x="18.0005"/>
  <rect id="svg_49" fill="white" height="3" width="3" y="15.0005" x="18.0005"/>
  <rect id="svg_50" fill="white" height="3" width="3" y="18.0005" x="18.0005"/>
  <rect stroke="null" id="svg_51" fill="white" height="14.56412" width="3" y="6.00024" x="12.0002"/>
  <rect id="svg_52" fill="white" height="3" width="3" y="18.0005" x="3.00024"/>
  <rect id="svg_53" fill="white" height="3" width="3" y="18.0005" x="9.00024"/>
  <rect id="svg_54" fill="white" height="3" width="3" y="18.0005" x="6.00024"/>
  <rect id="svg_55" fill="white" height="3" width="3" y="15.0005"/>
  <rect id="svg_56" fill="white" height="3" width="3" y="12.0002"/>
  <rect id="svg_57" fill="white" height="3" width="3" x="36"/>
  <rect id="svg_58" fill="white" height="3" width="3" y="6.00024"/>
  <rect stroke="null" x="0" id="svg_59" fill="white" height="16.94704" width="3" y="1.45836"/>
  <rect stroke="null" x="-1.75214" y="0" id="svg_60" fill="white" height="3" width="42.17785"/>
  <rect id="svg_61" fill="white" height="3" width="3" x="3.00024"/>
  <rect id="svg_62" fill="white" height="3" width="3" x="6.00024"/>
  <rect id="svg_63" fill="white" height="3" width="3" x="21"/>
  <rect id="svg_64" fill="white" height="3" width="3" x="26.9998"/>
  <rect id="svg_65" fill="white" height="3" width="3" x="23.9995"/>
  <rect id="svg_66" fill="white" height="3" width="3" x="15.0005"/>
  <rect id="svg_67" fill="white" height="3" width="3" x="12.0002"/>
  <rect id="svg_68" fill="white" height="3" width="3" x="9.00024"/>
  <rect id="svg_69" fill="white" height="3" width="3" x="18.0005"/>
 </g>
</svg>