<svg width="13" height="9" viewBox="0 0 13 9" fill="none" xmlns="http://www.w3.org/2000/svg">
<rect x="11" width="1" height="1" fill="#00579D"/>
<rect x="10" width="1" height="1" fill="#00579D"/>
<rect x="4" y="3" width="1" height="1" fill="#00579D"/>
<rect y="3" width="1" height="1" fill="#00579D"/>
<rect x="2" y="3" width="1" height="1" fill="#00579D"/>
<rect x="4" y="4" width="1" height="1" fill="#00579D"/>
<rect x="2" y="4" width="1" height="1" fill="#00579D"/>
<rect x="4" y="5" width="1" height="1" fill="#00579D"/>
<rect y="6" width="1" height="1" fill="#00579D"/>
<rect x="2" y="5" width="1" height="1" fill="#00579D"/>
<rect x="4" y="6" width="1" height="1" fill="#00579D"/>
<rect x="3" y="8" width="1" height="1" fill="#00579D"/>
<rect y="8" width="1" height="1" fill="#00579D"/>
<rect x="1" y="8" width="1" height="1" fill="#00579D"/>
<rect x="2" y="8" width="1" height="1" fill="#00579D"/>
<rect x="10" y="8" width="1" height="1" fill="#00579D"/>
<rect x="4" y="8" width="1" height="1" fill="#00579D"/>
<rect x="5" y="8" width="1" height="1" fill="#00579D"/>
<rect x="6" y="8" width="1" height="1" fill="#00579D"/>
<rect x="7" y="8" width="1" height="1" fill="#00579D"/>
<rect x="8" y="8" width="1" height="1" fill="#00579D"/>
<rect x="9" y="8" width="1" height="1" fill="#00579D"/>
<rect x="11" y="8" width="1" height="1" fill="#00579D"/>
<rect x="12" y="8" width="1" height="1" fill="#00579D"/>
<rect x="12" y="7" width="1" height="1" fill="#00579D"/>
<rect x="11" y="6" width="1" height="1" fill="#00579D"/>
<rect x="10" y="6" width="1" height="1" fill="#00579D"/>
<rect x="10" y="5" width="1" height="1" fill="#00579D"/>
<rect x="12" y="3" width="1" height="1" fill="#00579D"/>
<rect x="10" y="4" width="1" height="1" fill="#00579D"/>
<rect x="10" y="3" width="1" height="1" fill="#00579D"/>
<rect x="10" y="2" width="1" height="1" fill="#00579D"/>
<rect x="12" y="6" width="1" height="1" fill="#00579D"/>
<rect x="12" y="5" width="1" height="1" fill="#00579D"/>
<rect x="12" y="4" width="1" height="1" fill="#00579D"/>
<rect x="11" y="2" width="1" height="1" fill="#00579D"/>
<rect x="12" y="2" width="1" height="1" fill="#00579D"/>
<rect x="8" y="6" width="1" height="1" fill="#00579D"/>
<rect x="7" y="2" width="1" height="1" fill="#00579D"/>
<rect x="7" y="6" width="1" height="1" fill="#00579D"/>
<rect x="7" y="4" width="1" height="1" fill="#00579D"/>
<rect x="8" y="4" width="1" height="1" fill="#00579D"/>
<rect x="8" y="3" width="1" height="1" fill="#00579D"/>
<rect x="8" y="2" width="1" height="1" fill="#00579D"/>
<rect x="6" y="2" width="1" height="1" fill="#00579D"/>
<rect x="2" y="2" width="1" height="1" fill="#00579D"/>
<rect x="6" y="3" width="1" height="1" fill="#00579D"/>
<rect x="6" y="4" width="1" height="1" fill="#00579D"/>
<rect x="6" y="5" width="1" height="1" fill="#00579D"/>
<rect x="6" y="6" width="1" height="1" fill="#00579D"/>
<rect x="4" y="2" width="1" height="1" fill="#00579D"/>
<rect x="1" y="6" width="1" height="1" fill="#00579D"/>
<rect x="3" y="6" width="1" height="1" fill="#00579D"/>
<rect x="2" y="6" width="1" height="1" fill="#00579D"/>
<rect y="5" width="1" height="1" fill="#00579D"/>
<rect y="4" width="1" height="1" fill="#00579D"/>
<rect x="12" width="1" height="1" fill="#00579D"/>
<rect y="2" width="1" height="1" fill="#00579D"/>
<rect y="1" width="1" height="1" fill="#00579D"/>
<rect width="1" height="1" fill="#00579D"/>
<rect x="1" width="1" height="1" fill="#00579D"/>
<rect x="2" width="1" height="1" fill="#00579D"/>
<rect x="7" width="1" height="1" fill="#00579D"/>
<rect x="9" width="1" height="1" fill="#00579D"/>
<rect x="8" width="1" height="1" fill="#00579D"/>
<rect x="5" width="1" height="1" fill="#00579D"/>
<rect x="4" width="1" height="1" fill="#00579D"/>
<rect x="3" width="1" height="1" fill="#00579D"/>
<rect x="6" width="1" height="1" fill="#00579D"/>
</svg>
